<svg version="1.2" xmlns="http://www.w3.org/2000/svg" viewBox="0 0 800 800" width="800" height="800">
	<title>logo12</title>
	<style>
		.s0 { fill: #FFFFFF }
	</style>
	<g id="Folder 1">
		<path id="Shape 1 copy" fill-rule="evenodd" class="s0" d="m400.1 772c-185.3 0-335-149.7-335-335 0-185.2 149.7-335 335-335 49 0 95.6 10.5 137.5 29.4-10.1 6.3-20.4 12.6-30.6 18.8-33.3-12.4-69.3-19.2-106.9-19.2-169.2 0-306 136.8-306 306 0 169.3 136.8 306 306 306 169.2 0 306-136.7 306-306 0-38.5-7.1-75.3-20.1-109.3 5.7-12.4 10.8-24.9 15.4-37.4 21.6 44.3 33.7 94.1 33.7 146.7 0 185.3-149.8 335-335 335z"/>
		<path id="Layer 2 copy" class="s0" d="m310.4 474c-20.3-32.4-63.4-64.5-98-99.9-33.1-33.8-34.8-98.4-34.8-98.4-1.4-1.9-5.3-0.9-5.7 1.5 0 0-70.9 116.9-46.4 222.4 26.1 111.7 86.8 157.6 102.2 167.8-52.4-120.9-67.6-151.6-60-227.8 0 0-8.8 83.8 84.9 173l34.7-86c0 0 27.1-46.3 23.1-52.6z"/>
		<path id="Layer 1" class="s0" d="m274.4 558.7c0 0-72.2-141.3 58-265.8 56.1-53.7 149.5-99.1 231.7-153.9 78.8-52.5 134.9-119.8 134.9-119.8 3.7-3.1 9.2 0.3 8.1 5 0 0 26.1 226.8-94 385.8-152.9 202.4-257.8 128.7-315.6 259.1-8.1 18-8.8 44.2 11.7 64.2l-39.9-18.6c0 0 0.7-111.3 92-235.4 51.4-69.9 137.5-146.1 175.4-189.4 0 0-197.4 138.5-262.3 268.8z"/>
	</g>
</svg>