<svg version="1.2" xmlns="http://www.w3.org/2000/svg" viewBox="0 0 380 380" width="380" height="380">
	<title>take4</title>
	<style>
		.s0 { fill: none;stroke: #fff;stroke-linecap: round;stroke-miterlimit:100;stroke-width: 25 }
	</style>
	<path id="Layer 1" class="s0" d="m22.8 282.7h60c1.7 0 3.3-0.9 4.2-2.4l38.6-62.6c2.1-3.4 7.2-3.1 8.8 0.6l51 121.2c9.5 16.9 9.6 18.4 9.6-4.8v-189.6c0 0-0.4-118.1-121.3-118.1 0 122.8 121.2 123.8 121.2 123.8 0 0 118-0.7 118-123.8-118.1 0-117.5 118.1-117.5 118.1l-0.4 189.6c0 22.6-0.1 21.7 9.3 5.3l49.2-85.9c1.7-3 6-3.4 8.2-0.6l22.2 27.3c1 1.2 2.4 1.9 3.9 1.9h68"/>
</svg>